<svg id="Layer_1" data-name="Layer 1" xmlns="http://www.w3.org/2000/svg" viewBox="0 0 106.91 23.6"><defs><style>.cls-1{fill:#ff006e;}.cls-2{fill:#ffdc00;}.cls-3{fill:#fff;}</style></defs><path d="M13.52,20.21l-2.37,3.06h-4C3,23.27,0,20.66,0,17.21s3-5.84,7.17-5.84h8.35l-2.37,3.1h-6c-2,0-3.49,1.19-3.49,2.9s1.48,2.84,3.49,2.84Z"/><path d="M31.59,23.27H26.66L24,20.12H18.35v3.15H14.67V17.19H25c1.14,0,2-.52,2-1.34s-.76-1.38-2-1.38H15.67l2.4-3.1h6.65c2.71,0,6.13.85,6.13,4.25a3.73,3.73,0,0,1-3.12,3.77A14.92,14.92,0,0,1,29.4,21Z"/><path d="M41.05,20.21l-2.31,3.06h-6.2V11.37H47.76l-2.35,3.1H36.25v1.42h8.08l-2,2.7h-6v1.62Z"/><path d="M48.75,23.27,51,20.21h2c.71,0,1.55,0,2.12,0-.32-.43-.82-1.16-1.21-1.73l-2.14-3.15-5.59,7.9H41.78l7.64-10.76a2.84,2.84,0,0,1,2.38-1.34,2.75,2.75,0,0,1,2.35,1.34l7.44,10.76Z"/><path d="M88.6,17.31c0,4.25-2.92,6.16-8.7,6.16s-8.7-1.91-8.7-6.16,2.9-6.14,8.7-6.14S88.6,13.06,88.6,17.31Zm-3.67,0c0-2.56-1.33-3-5-3s-5,.48-5,3,1.34,3.06,5,3.06S84.93,19.87,84.93,17.31Z"/><path d="M72.63,11.37H56l2.28,3.1H62.9v8.8h3.68v-8.8H69.7A5.82,5.82,0,0,1,72.63,11.37Z"/><path d="M106.91,23.27H102l-2.65-3.15H93.67v3.15H90V17.19h10.36c1.14,0,2-.52,2-1.34s-.77-1.38-2-1.38H90l2.4-3.1H100c2.71,0,6.13.85,6.13,4.25a3.73,3.73,0,0,1-3.12,3.77A14.92,14.92,0,0,1,104.72,21Z"/><polygon class="cls-1" points="94.69 14.46 97.08 11.37 94.74 11.37 92.34 14.46 94.69 14.46"/><polygon class="cls-2" points="92.34 14.46 94.74 11.37 92.36 11.37 89.99 14.46 92.34 14.46"/><polygon points="49.21 8.47 0.4 8.47 0.4 0 55.82 0 49.21 8.47"/><polygon class="cls-3" points="12.24 1.48 11.58 1.48 10.95 1.48 10.3 1.48 7.72 4.34 5.15 1.48 4.51 1.48 3.87 1.48 3.21 1.48 2.57 1.48 1.93 1.48 1.93 6.99 2.57 6.99 3.21 6.99 3.94 6.99 4.58 6.99 5.22 6.99 5.22 4.95 6.43 6.22 7.07 6.22 7.71 6.22 7.72 6.22 8.36 6.22 9 6.22 10.23 4.94 10.23 6.99 10.87 6.99 11.51 6.99 12.24 6.99 12.88 6.99 13.52 6.99 13.52 1.48 12.88 1.48 12.24 1.48"/><polygon class="cls-3" points="22.01 1.48 15.52 1.48 14.88 1.48 14.24 1.48 14.24 6.99 14.88 6.99 15.52 6.99 22.01 6.99 22.65 6.99 23.29 6.99 23.29 6.08 22.65 6.08 22.01 6.08 17.61 6.08 17.61 4.67 21.57 4.67 22.2 4.67 22.84 4.67 22.84 3.78 22.2 3.78 21.57 3.78 17.61 3.78 17.61 2.38 22.01 2.38 22.65 2.38 23.29 2.38 23.29 1.48 22.65 1.48 22.01 1.48"/><polygon class="cls-3" points="32.94 1.48 32.3 1.48 31.49 1.48 30.85 1.48 30.21 1.48 30.21 5.67 29.43 6.07 27.7 6.07 26.92 5.67 26.92 1.48 26.28 1.48 25.64 1.48 24.83 1.48 24.19 1.48 23.55 1.48 23.55 6.04 25.39 6.99 26.03 6.99 26.67 6.99 30.46 6.99 31.1 6.99 31.74 6.99 33.58 6.04 33.58 1.48 32.94 1.48"/></svg>