<svg id="Layer_1" data-name="Layer 1" xmlns="http://www.w3.org/2000/svg" viewBox="0 0 106.91 23.6"><path d="M3.68,17.37c0-1.71,1.5-2.9,3.49-2.9h6l2.37-3.1H7.17C3,11.37,0,13.72,0,17.21s3,6.06,7.17,6.06h4l2.37-3.06H7.17C5.16,20.21,3.68,19.06,3.68,17.37Z"/><path d="M27.73,19.39a3.73,3.73,0,0,0,3.12-3.77c0-3.4-3.42-4.25-6.13-4.25H18.07l-2.4,3.1H25c1.26,0,2,.46,2,1.38s-.88,1.34-2,1.34H14.67v6.08h3.68V20.12H24l2.65,3.15h4.93L29.4,21A14.92,14.92,0,0,0,27.73,19.39Z"/><polygon points="36.24 18.59 42.28 18.59 44.34 15.89 36.24 15.89 36.24 14.46 45.41 14.46 47.76 11.37 32.54 11.37 32.54 23.27 38.74 23.27 41.05 20.21 36.24 20.21 36.24 18.59"/><path d="M51.8,11.17a2.84,2.84,0,0,0-2.38,1.34L41.78,23.27h4.36l5.59-7.9,2.14,3.15c.39.57.89,1.3,1.21,1.73-.57,0-1.41,0-2.12,0H51l-2.22,3.06H61.59L54.15,12.51A2.75,2.75,0,0,0,51.8,11.17Z"/><path d="M79.9,11.17c-5.8,0-8.7,1.89-8.7,6.14s2.9,6.16,8.7,6.16,8.7-1.91,8.7-6.16S85.68,11.17,79.9,11.17Zm0,9.2c-3.7,0-5-.5-5-3.06s1.34-3,5-3,5,.48,5,3S83.6,20.37,79.9,20.37Z"/><path d="M56,11.37l2.28,3.09H62.9v8.81h3.68V14.46H69.7a5.84,5.84,0,0,1,2.93-3.09Z"/><path d="M104.72,21a14.92,14.92,0,0,0-1.67-1.57,3.73,3.73,0,0,0,3.12-3.77c0-3.4-3.42-4.25-6.13-4.25h-3l-2.39,3.1h5.66c1.26,0,2,.46,2,1.38s-.89,1.34-2,1.34H90v6.08h3.68V20.12h5.66L102,23.27h4.93Z"/><polygon points="94.74 11.37 92.34 14.46 94.69 14.46 97.08 11.37 94.74 11.37"/><polygon points="92.36 11.37 89.99 14.46 92.39 11.37 92.36 11.37"/><polygon points="92.39 11.37 89.99 14.46 92.34 14.46 94.74 11.37 92.39 11.37"/><path d="M55.82,0H.4V8.47H49.21ZM13.52,7H10.23v-2L9,6.22H6.43L5.22,5V7H1.93V1.48H5.15L7.72,4.34l2.59-2.86h3.21Zm9.77-4.61H17.61v1.4h5.23v.89H17.61V6.08h5.68V7h-9V1.48h9ZM33.58,6,31.74,7H25.39L23.55,6V1.48h3.37V5.67l.78.4h1.73l.78-.4V1.48h3.37Z"/></svg>